<?xml version="1.0" encoding="UTF-8" standalone="no"?>
<svg
   version="1.1"
   x="0px"
   y="0px"
   viewBox="0 0 82.09433 82.835098"
   enable-background="new 0 0 100 100"
   xml:space="preserve"
   id="svg2"
   sodipodi:docname="noun-spain-393224.svg"
   width="82.09433"
   height="82.835098"
   inkscape:version="1.3.2 (091e20e, 2023-11-25)"
   xmlns:inkscape="http://www.inkscape.org/namespaces/inkscape"
   xmlns:sodipodi="http://sodipodi.sourceforge.net/DTD/sodipodi-0.dtd"
   xmlns="http://www.w3.org/2000/svg"
   xmlns:svg="http://www.w3.org/2000/svg"><defs
     id="defs2" /><sodipodi:namedview
     id="namedview2"
     pagecolor="#ffffff"
     bordercolor="#000000"
     borderopacity="0.25"
     inkscape:showpageshadow="2"
     inkscape:pageopacity="0.0"
     inkscape:pagecheckerboard="0"
     inkscape:deskcolor="#d1d1d1"
     inkscape:zoom="1.5104"
     inkscape:cx="41.048729"
     inkscape:cy="66.207627"
     inkscape:window-width="1440"
     inkscape:window-height="449"
     inkscape:window-x="0"
     inkscape:window-y="25"
     inkscape:window-maximized="0"
     inkscape:current-layer="svg2" /><path
     d="M 36.819139,82.72874 C 34.281492,82.465061 31.427043,81.904322 29.225626,81.237042 17.18335,77.586865 7.8392753,68.99539 2.9920663,57.116415 -0.15274827,49.409469 -0.84881087,40.380385 1.0474753,31.891855 1.9785253,27.724109 4.0658733,22.661063 6.3416313,19.05042 13.055731,8.3980484 23.59997,1.6954794 36.066963,0.15516344 c 2.533607,-0.313031 8.51716,-0.128977 11.118511,0.342004 C 59.913149,2.8015494 70.70369,11.013889 76.432392,22.756074 c 2.111686,4.328345 3.202515,7.830406 3.902486,12.528758 0.443736,2.978448 0.528403,8.205604 0.178809,11.039147 -2.31788,18.786988 -16.348356,33.457642 -34.568629,36.145918 -2.331564,0.344006 -7.025106,0.477131 -9.125919,0.258843 z m 9.568924,-2.544887 C 56.96044,78.284941 65.679328,72.747477 71.672258,64.125577 80.895227,50.856688 81.094413,33.094968 72.17177,19.583522 70.495525,17.045206 69.148288,15.434938 66.740686,13.092093 60.947972,7.4551844 54.260142,4.1020814 46.033659,2.7101314 c -2.218571,-0.37539 -8.145364,-0.433844 -10.454936,-0.103114 -2.066152,0.295872 -4.889134,0.966094 -6.970403,1.654887 -2.303167,0.76223 -6.842032,3.065286 -9.093591,4.61416 -4.259126,2.9299036 -8.366902,7.1666656 -11.0373227,11.3838976 -0.364963,0.576363 -0.781273,1.165636 -0.925133,1.309498 -0.433863,0.433862 -2.321322,4.463478 -3.055129,6.522524 -3.57217197,10.023428 -2.938229,21.277819 1.737019,30.83732 0.660867,1.351278 1.400261,2.696093 1.643096,2.988476 0.242836,0.292384 0.788469,1.049924 1.212519,1.683422 1.9056487,2.846893 5.3573737,6.604361 7.9618527,8.667088 5.702106,4.51602 12.249398,7.305267 19.1473,8.157047 1.999691,0.246928 8.30137,0.09758 10.189132,-0.241484 z M 36.90774,77.404782 C 30.164006,76.646583 23.469122,73.759377 18.319256,69.388391 16.612331,67.939626 13.92387,65.108501 12.65542,63.424 l -0.867331,-1.151815 14.40647,-0.04533 c 7.923558,-0.02493 20.947722,-0.02493 28.942586,0 l 14.536115,0.04533 -0.996947,1.317603 c -1.376807,1.819645 -4.635874,5.150559 -6.340043,6.479813 -5.331967,4.15894 -11.36807,6.618192 -18.02335,7.343145 -1.970573,0.214652 -5.458511,0.2109 -7.40518,-0.008 z M 16.529543,57.797827 c -3.7e-5,-0.121827 0.13948,-0.230753 0.310037,-0.242058 0.295337,-0.01958 0.295337,-0.02441 0,-0.101596 -0.353186,-0.09229 -0.425038,-0.5794 -0.0886,-0.600648 0.177202,-0.0112 0.177202,-0.03186 0,-0.103368 -0.358564,-0.144683 -0.253924,-0.540362 0.177202,-0.670065 0.620019,-0.186527 3.72293,-0.139706 4.259437,0.06427 0.583064,0.22168 0.630179,0.541737 0.08202,0.557181 l -0.398706,0.01123 0.398706,0.16026 c 0.473076,0.190154 0.52866,0.523723 0.0886,0.53172 -0.295338,0.0054 -0.295338,0.01685 0,0.24104 0.170557,0.129471 0.310104,0.270703 0.310104,0.31385 0,0.04315 -1.156215,0.07423 -2.569366,0.06907 -1.932317,-0.0071 -2.569383,-0.0643 -2.569434,-0.230884 z m 2.691193,-0.342551 c -0.127917,-0.05119 -0.280754,-0.04489 -0.339638,0.01398 -0.05888,0.05888 0.04578,0.100764 0.232578,0.09307 0.206431,-0.0085 0.24842,-0.05049 0.10706,-0.107059 z m -1.054205,-0.181482 c -0.220424,-0.04239 -0.539388,-0.04078 -0.708809,0.0036 -0.169421,0.04435 0.01093,0.07903 0.400771,0.07707 0.389845,-0.002 0.528462,-0.03826 0.308038,-0.08064 z m 2.30363,0 c -0.220424,-0.04239 -0.539388,-0.04078 -0.708809,0.0036 -0.169422,0.04435 0.01093,0.07903 0.400771,0.07707 0.389845,-0.002 0.528462,-0.03826 0.308038,-0.08064 z m -1.23835,-0.523637 c -0.121826,-0.04916 -0.321179,-0.04916 -0.443006,0 -0.121826,0.04916 -0.02215,0.08938 0.221503,0.08938 0.243653,0 0.34333,-0.04022 0.221503,-0.08938 z m -1.06528,-0.185172 c -0.220424,-0.04239 -0.539388,-0.04078 -0.708809,0.0036 -0.169421,0.04435 0.01093,0.07903 0.400771,0.07706 0.389845,-0.002 0.528462,-0.03826 0.308038,-0.08064 z m 2.394297,0.0032 c -0.170557,-0.04457 -0.449651,-0.04457 -0.620208,0 -0.170557,0.04457 -0.03101,0.08104 0.310104,0.08104 0.341115,0 0.480662,-0.03647 0.310104,-0.08104 z m 10.095377,1.192589 c -0.06879,-0.263082 -0.240042,-0.361652 -0.628271,-0.361652 -0.65721,0 -1.094297,-0.157163 -1.094297,-0.393476 0,-0.107877 0.227572,-0.1306 0.575907,-0.0575 0.721332,0.151371 1.817841,0.149927 2.569434,-0.0034 0.346095,-0.07059 0.575907,-0.0463 0.575907,0.06088 0,0.221629 -0.427594,0.393476 -0.979057,0.393476 -0.230155,0 -0.532448,0.162734 -0.671759,0.361629 l -0.253295,0.36163 -0.09457,-0.36163 z m 9.263974,0.140138 c 0,-0.07136 0.139547,-0.211026 0.310104,-0.310366 0.295338,-0.172019 0.295338,-0.180876 0,-0.186007 -0.44009,-0.0077 -0.384465,-0.341326 0.0886,-0.531474 l 0.398705,-0.16026 -0.398705,-0.01123 c -0.550043,-0.01551 -0.500173,-0.334397 0.0886,-0.566569 0.634317,-0.250132 3.715888,-0.23118 4.392338,0.02701 0.475542,0.181506 0.496379,0.221439 0.221088,0.423685 -0.237353,0.174374 -0.257089,0.270142 -0.09008,0.437148 0.167006,0.167006 0.161509,0.246206 -0.02509,0.361528 -0.166689,0.10302 -0.179637,0.184324 -0.04282,0.268883 0.479977,0.296642 0.03429,0.366453 -2.373338,0.371747 -1.413174,0.0031 -2.569409,-0.05273 -2.569409,-0.124093 z m 2.69126,-0.445608 c -0.127918,-0.05119 -0.280755,-0.04489 -0.339638,0.01398 -0.05888,0.05888 0.04578,0.100764 0.232578,0.09307 0.206432,-0.0085 0.24842,-0.05049 0.10706,-0.107059 z m -0.963537,-0.178305 c -0.170557,-0.04457 -0.449651,-0.04457 -0.620208,0 -0.170557,0.04457 -0.03101,0.08104 0.310104,0.08104 0.341114,0 0.480661,-0.03647 0.310104,-0.08104 z m 2.390165,-0.0032 c -0.220424,-0.04238 -0.539388,-0.04078 -0.70881,0.0036 -0.169421,0.04435 0.01093,0.07903 0.400772,0.07707 0.389845,-0.002 0.528461,-0.03826 0.308038,-0.08064 z m -1.426628,-0.527327 c -0.127918,-0.05119 -0.280755,-0.04489 -0.339638,0.01398 -0.05888,0.05888 0.04578,0.100764 0.232578,0.09307 0.206432,-0.0085 0.24842,-0.05049 0.10706,-0.107058 z m -0.963537,-0.178305 c -0.170557,-0.04457 -0.449651,-0.04457 -0.620208,0 -0.170557,0.04457 -0.03101,0.08104 0.310104,0.08104 0.341114,0 0.480661,-0.03647 0.310104,-0.08104 z m 2.390165,-0.0032 c -0.220424,-0.04238 -0.539388,-0.04078 -0.70881,0.0036 -0.169421,0.04435 0.01093,0.07903 0.400772,0.07706 0.389845,-0.002 0.528461,-0.03826 0.308038,-0.08064 z m -16.74061,-4.171838 -0.04724,-4.65156 -0.398705,-0.05663 -0.398705,-0.05662 v 4.619584 c 0,3.869758 -0.04079,4.619584 -0.25131,4.619584 -0.725397,0 -0.725316,5.32e-4 -0.673169,-4.697673 l 0.05014,-4.516846 h -0.445634 -0.445632 l -0.04751,4.208554 -0.04751,4.208555 -0.398706,-0.398705 c -0.388666,-0.388667 -0.398705,-0.494326 -0.398705,-4.19623 v -3.797525 l -0.398705,-0.05663 c -0.350474,-0.04977 -0.409422,-0.18439 -0.487306,-1.112799 l -0.0886,-1.056173 -0.70881,-0.147835 c -0.957438,-0.199689 -3.099383,-0.05968 -3.735947,0.244199 -0.449943,0.214794 -0.523952,0.356754 -0.571275,1.095817 -0.04993,0.779752 -0.08609,0.839943 -0.443006,0.737389 -0.737898,-0.212021 -1.186049,-0.912892 -1.186049,-1.854883 0,-0.696504 0.07807,-0.921273 0.398706,-1.147961 0.81075,-0.573185 2.280661,-0.859461 4.341456,-0.845526 l 1.993526,0.01349 V 40.815377 38.08405 l 1.727722,-0.02041 c 0.950248,-0.01122 1.887205,-0.0077 2.082127,0.0079 0.29189,0.02333 0.307779,-0.003 0.09008,-0.149419 -0.400231,-0.269149 -0.06931,-0.464187 1.373679,-0.809618 1.575077,-0.377051 4.60093,-0.296713 6.03439,0.160214 1.496509,0.477025 1.105934,0.715344 -1.266231,0.772621 l -2.067667,0.04993 v 3.05658 3.05658 l 0.736869,0.260339 c 0.936849,0.330994 1.740113,1.309216 1.869952,2.277246 l 0.09788,0.72973 h 2.546101 2.546101 v 3.448806 3.448807 l -0.753109,0.923066 c -1.089183,1.334984 -2.047348,1.801793 -3.476594,1.693765 -1.326088,-0.100229 -2.271372,-0.664287 -3.107879,-1.854489 -0.503552,-0.716466 -0.523338,-0.816706 -0.480252,-2.432853 0.04317,-1.61912 0.02874,-1.691715 -0.36577,-1.840722 -0.225889,-0.08532 -0.475172,-0.117034 -0.553961,-0.07048 -0.07879,0.04656 -0.127045,1.191286 -0.107234,2.543841 0.03658,2.497454 -0.07358,3.000368 -0.65722,3.000368 -0.198024,0 -0.244851,-0.59378 -0.248048,-3.145341 -0.0036,-2.848838 -0.03661,-3.187101 -0.350464,-3.588346 l -0.346524,-0.443006 -0.0039,3.835191 c -0.0041,3.972395 -0.01802,4.050311 -0.724306,4.050311 -0.08963,0 -0.180507,-2.041997 -0.207011,-4.65156 z m 7.749659,3.942751 c 0.06024,-0.09746 0.303978,-0.177202 0.541654,-0.177202 0.602726,0 1.573454,-1.004812 1.79751,-1.860624 0.166519,-0.636043 0.293999,-1.855298 0.268646,-2.569433 -0.0608,-1.712893 -0.04928,-2.52172 0.03993,-2.802811 0.12329,-0.388452 -0.311086,-0.837321 -0.623462,-0.644263 -0.11345,0.07012 -0.595389,0.113624 -1.070977,0.09669 -1.823911,-0.06497 -2.353934,0.01384 -2.421118,0.360008 -0.03414,0.175917 0.100854,0.25625 0.422115,0.251188 0.45235,-0.0071 0.474312,0.03562 0.519701,1.01147 0.05325,1.144888 -0.165645,1.315329 -0.539656,0.420198 -0.263241,-0.630027 -0.741671,-0.943083 -1.018383,-0.666371 -0.100731,0.100731 0.08932,0.444714 0.491933,0.890353 0.515859,0.570997 0.743578,0.704245 1.065475,0.623453 0.310102,-0.07783 0.482275,0.0085 0.709894,0.355872 0.246293,0.375892 0.438214,0.458622 1.063922,0.458622 h 0.763421 l -0.02282,0.974613 c -0.02266,0.9677 -0.156588,1.196755 -0.428465,0.732781 -0.364391,-0.621858 -1.203747,-1.530192 -1.413989,-1.530192 -0.312057,0 -0.296528,0.259065 0.03187,0.531607 0.146191,0.121329 0.265803,0.325016 0.265803,0.452637 0,0.127621 0.2422,0.404501 0.538224,0.615289 0.411766,0.293202 0.512233,0.472983 0.427606,0.765175 -0.142107,0.490659 -0.733934,1.002136 -1.159569,1.002136 -0.296541,0 -0.328299,-0.136107 -0.299761,-1.284717 0.05784,-2.327903 -0.406144,-2.660765 -1.667397,-1.196202 -0.419617,0.487259 -0.822747,0.885964 -0.895843,0.886012 -0.0731,4.7e-5 -0.132901,-0.438489 -0.132901,-0.974526 0,-0.964767 0.0054,-0.974613 0.531606,-0.974613 0.305705,0 0.532761,-0.09413 0.53432,-0.221503 0.002,-0.158328 0.04738,-0.150964 0.159319,0.02582 0.0893,0.141023 0.283363,0.198683 0.451524,0.134153 0.162206,-0.06224 0.245287,-0.193475 0.184629,-0.291625 -0.143436,-0.232084 -1.861398,-0.233239 -1.861398,-0.0013 0,0.09746 -0.139547,0.174666 -0.310104,0.171567 -0.295338,-0.0054 -0.295338,-0.01685 0,-0.24104 0.302066,-0.229299 0.443638,-1.170943 0.176046,-1.170943 -0.21292,0 -0.597262,1.415835 -0.447751,1.649429 0.07435,0.116156 0.14159,0.530159 0.14943,0.920004 0.03633,1.806901 0.07989,2.049653 0.388078,2.163085 0.170557,0.06278 0.485713,0.299497 0.700348,0.526046 0.238886,0.252149 0.595655,0.411909 0.919853,0.411909 0.291287,0 0.578894,0.07974 0.639128,0.177202 0.06024,0.09746 0.179846,0.177202 0.265804,0.177202 0.08596,0 0.205569,-0.07974 0.265803,-0.177202 z M 34.60411,55.882416 c 0,-0.151944 0.07974,-0.226978 0.177203,-0.166744 0.09746,0.06024 0.177202,0.184553 0.177202,0.276262 0,0.09171 -0.07974,0.166744 -0.177202,0.166744 -0.09746,0 -0.177203,-0.124318 -0.177203,-0.276262 z m -1.105779,-0.493735 c -0.782256,-0.45065 -0.832608,-0.784827 -0.206402,-1.369843 0.252914,-0.236276 0.573927,-0.648881 0.71336,-0.9169 0.139435,-0.268018 0.31732,-0.487306 0.395298,-0.487306 0.230745,0 0.199267,2.795614 -0.03363,2.986844 -0.136507,0.112086 -0.429116,0.0404 -0.868624,-0.212795 z M 32.123278,54.74106 c 0,-0.09746 0.07503,-0.177203 0.166744,-0.177203 0.09171,0 0.216027,0.07974 0.276262,0.177203 0.06023,0.09746 -0.0148,0.177202 -0.166744,0.177202 -0.151944,0 -0.276262,-0.07974 -0.276262,-0.177202 z m 4.430058,0 c 0,-0.09746 0.07503,-0.177203 0.166744,-0.177203 0.09171,0 0.216027,0.07974 0.276261,0.177203 0.06023,0.09746 -0.0148,0.177202 -0.166743,0.177202 -0.151944,0 -0.276262,-0.07974 -0.276262,-0.177202 z m 0.531607,-3.012439 c 0,-0.09746 0.07974,-0.177203 0.177202,-0.177203 0.09746,0 0.177202,0.07974 0.177202,0.177203 0,0.09746 -0.07974,0.177202 -0.177202,0.177202 -0.09746,0 -0.177202,-0.07974 -0.177202,-0.177202 z m -1.58132,-0.464237 c 0.138767,-0.169933 0.411784,-0.485034 0.606707,-0.700229 0.194923,-0.215192 0.481124,-0.574819 0.636004,-0.79917 0.271004,-0.392565 0.281004,-0.3683 0.265803,0.644962 l -0.0158,1.05287 -0.87251,0.05527 c -0.810979,0.05137 -0.854718,0.03348 -0.620208,-0.253701 z m -0.489332,-1.225168 0.04284,-1.057231 0.823757,-0.0085 c 0.949831,-0.0098 0.942101,0.04024 -0.205851,1.3315 l -0.703594,0.791428 0.04284,-1.057232 z M 34.60411,48.716182 c 0,-0.09746 0.07974,-0.177203 0.177203,-0.177203 0.09746,0 0.177202,0.07974 0.177202,0.177203 0,0.09746 -0.07974,0.177202 -0.177202,0.177202 -0.09746,0 -0.177203,-0.07974 -0.177203,-0.177202 z m 2.480833,0 c 0,-0.09746 0.124318,-0.177203 0.276262,-0.177203 0.151943,0 0.226978,0.07974 0.166743,0.177203 -0.06023,0.09746 -0.184552,0.177202 -0.276262,0.177202 -0.09171,0 -0.166743,-0.07974 -0.166743,-0.177202 z m -5.723659,-0.322383 c -0.16567,-0.03191 -0.30122,-0.211643 -0.30122,-0.399419 0,-0.449809 -0.361797,-0.44002 -0.480262,0.01299 -0.05097,0.194922 -0.211824,0.354405 -0.357447,0.354405 -0.182752,0 -0.137146,0.10334 0.147232,0.333615 0.38502,0.311771 0.440838,0.314718 0.852456,0.04502 0.362528,-0.237538 0.387164,-0.298862 0.139241,-0.346609 z m -1.130957,-1.173463 c 0.309629,-0.234721 0.309821,-0.258473 0.0049,-0.614572 -0.37345,-0.436149 -0.592807,-0.474859 -0.592807,-0.104611 0,0.146192 -0.119611,0.265803 -0.265803,0.265803 -0.352656,0 -0.336033,0.173423 0.0443,0.462135 0.384531,0.291902 0.413186,0.291592 0.809384,-0.0088 z m 1.937252,0.0088 c 0.380333,-0.28871 0.396956,-0.462133 0.0443,-0.462133 -0.146191,0 -0.265803,-0.119611 -0.265803,-0.265803 0,-0.146192 -0.07974,-0.265803 -0.177202,-0.265803 -0.09746,0 -0.177203,0.15698 -0.177203,0.348844 0,0.237279 -0.08501,0.316222 -0.265803,0.246844 -0.146192,-0.0561 -0.265804,-0.04245 -0.265804,0.03033 0,0.135589 0.549462,0.603129 0.70881,0.603129 0.04873,0 0.228148,-0.10593 0.398705,-0.235403 z M 26.391521,45.7001 c 0.123406,-0.617025 0.270877,-0.749567 0.665501,-0.598137 0.167736,0.06437 0.281794,0.315634 0.281794,0.620784 0,0.41931 0.07548,0.512648 0.414561,0.512648 0.279643,0 0.487693,-0.158594 0.639263,-0.487306 0.308357,-0.668732 0.306108,-3.851032 -0.003,-4.223466 -0.181978,-0.219271 -0.186569,-0.352583 -0.02126,-0.617281 0.307389,-0.492208 0.260893,-0.641775 -0.187863,-0.604315 -0.259808,0.02169 -0.383272,0.134835 -0.354404,0.324791 0.02437,0.160329 0.06424,0.431016 0.0886,0.601527 0.07162,0.501172 -0.692028,0.510417 -0.86045,0.01042 -0.161167,-0.478461 -0.106901,-1.047464 0.122661,-1.286188 0.291914,-0.303563 0.17057,-0.451866 -0.369726,-0.451866 -0.292383,0 -0.531606,0.07974 -0.531606,0.177203 0,0.09746 0.07974,0.177202 0.177202,0.177202 0.09746,0 0.177202,0.398705 0.177202,0.886011 0,0.826945 -0.02953,0.886012 -0.443006,0.886012 -0.488887,0 -0.611018,-0.469916 -0.222984,-0.85795 0.175228,-0.175228 0.166209,-0.254009 -0.0443,-0.386964 -0.314283,-0.198498 -0.570048,-0.14154 -0.666719,0.148475 -0.03858,0.115734 0.05475,0.210427 0.2074,0.210427 0.24268,0 0.23702,0.07234 -0.04506,0.575908 -0.265355,0.473715 -0.308039,0.851039 -0.240554,2.126427 0.07127,1.346922 0.04422,1.55052 -0.205981,1.55052 -0.211036,0 -0.288025,0.16578 -0.288025,0.620208 0,0.617435 0.0036,0.620208 0.80184,0.620208 0.750399,0 0.808709,-0.03434 0.908899,-0.535294 z m -0.824728,-2.819777 c 0,-0.769779 0.213536,-0.903627 0.780371,-0.489148 0.493421,0.360798 0.309627,1.08431 -0.293064,1.153656 -0.460909,0.05303 -0.487307,0.01703 -0.487307,-0.664508 z m 1.65875,0.430839 c -0.123349,-0.321442 0.06405,-1.151418 0.259983,-1.151418 0.397705,0 0.71158,0.471677 0.619074,0.930312 -0.108351,0.537183 -0.700603,0.686152 -0.879057,0.221106 z m -5.981747,0.84578 c -0.05888,-0.05888 -0.100764,0.04578 -0.09307,0.232578 0.0085,0.206432 0.05049,0.24842 0.107058,0.10706 0.05119,-0.127919 0.0449,-0.280756 -0.01398,-0.339638 z m 9.353053,12.278798 c -0.139614,-0.363826 0.05702,-0.861564 0.284762,-0.720814 0.09815,0.06066 0.178453,0.260361 0.178453,0.44378 0,0.436563 -0.326961,0.632107 -0.463215,0.277034 z m 10.208945,-1.542792 c 7.09e-4,-0.221526 0.574821,-0.329031 1.742613,-0.32635 1.946934,0.0045 1.926151,0.317988 -0.02539,0.383039 -0.94469,0.03149 -1.717441,0.006 -1.717221,-0.05669 z M 17.59269,54.741088 c 0.351303,-0.22703 2.783525,-0.22703 2.923838,0 0.07006,0.113356 -0.48482,0.176224 -1.540062,0.174489 -1.130497,-0.0019 -1.565938,-0.05677 -1.383776,-0.174489 z m -0.531607,-2.707361 c 0,-0.106252 -0.167604,-0.539407 -0.372453,-0.96257 -0.235638,-0.486764 -0.332047,-0.930376 -0.262455,-1.207653 0.118657,-0.472763 1.055225,-1.145675 2.052526,-1.474711 0.341115,-0.112543 0.879367,-0.362836 1.196116,-0.556208 0.495725,-0.302633 0.575907,-0.450631 0.575907,-1.062996 0,-0.803075 0.0078,-0.808127 0.696136,-0.452165 0.558053,0.288581 0.721483,0.591475 0.721483,1.337163 0,0.686032 -0.98235,1.474118 -2.297439,1.843113 -1.207573,0.338829 -1.951087,0.88854 -1.632584,1.207044 0.373936,0.373935 0.24508,1.094385 -0.235614,1.317336 -0.31165,0.144549 -0.441623,0.147976 -0.441623,0.01165 z m 26.999845,0.03873 c -0.45397,-0.167935 -0.592616,-0.495984 -0.407433,-0.964014 0.355955,-0.899639 -0.04977,-1.331016 -1.509397,-1.604845 -0.677215,-0.127046 -1.822306,-0.784484 -2.08443,-1.196745 -0.439118,-0.690635 0.05589,-1.917447 0.868817,-2.153251 0.351548,-0.101972 0.393269,-0.04084 0.443006,0.64911 l 0.05491,0.761685 1.622409,0.79741 c 0.892325,0.438576 1.749542,0.906851 1.904925,1.04061 0.321861,0.277072 0.37653,1.098124 0.09206,1.382594 -0.104751,0.104752 -0.285903,0.468092 -0.402559,0.807424 -0.179412,0.521873 -0.269165,0.595861 -0.582306,0.480022 z M 43.81863,46.68247 c 0,-0.633015 -0.08262,-0.847461 -0.408877,-1.061231 -0.520558,-0.341083 -2.985612,-0.52936 -3.97688,-0.303748 l -0.75311,0.171408 v -0.955778 -0.955776 l 0.75311,-0.0042 c 0.41421,-0.0023 1.052564,-0.07376 1.418563,-0.158754 0.365999,-0.08499 0.702423,-0.0947 0.747611,-0.02159 0.04519,0.07311 0.552653,0.182113 1.127705,0.242216 0.575052,0.06011 1.394871,0.291664 1.821822,0.514578 0.656747,0.342888 0.785198,0.498736 0.834219,1.012146 0.109185,1.143498 -0.105928,1.72282 -0.75389,2.030298 -0.328915,0.156089 -0.645785,0.283792 -0.704152,0.283792 -0.05837,0 -0.106121,-0.356997 -0.106121,-0.793326 z m -0.177202,-1.864709 c 0,-0.09746 -0.08445,-0.177202 -0.187661,-0.177202 -0.103213,0 -0.138377,0.07974 -0.07814,0.177202 0.06024,0.09746 0.144682,0.177203 0.187661,0.177203 0.04298,0 0.07814,-0.07974 0.07814,-0.177203 z m -7.619699,1.594821 c -0.418127,-0.418127 -0.464915,-0.886012 -0.0886,-0.886012 0.146192,0 0.265803,-0.07044 0.265803,-0.156535 0,-0.223385 -0.743142,-0.388298 -0.965391,-0.214232 -0.102533,0.0803 -0.385776,0.186323 -0.62943,0.235599 -0.243653,0.04928 -0.572072,0.144229 -0.729821,0.211004 -0.32772,0.138726 -0.536828,-0.380251 -0.385844,-0.957614 0.07246,-0.277082 0.15903,-0.314068 0.414767,-0.177202 0.484084,0.259075 0.541634,0.217537 0.41234,-0.297608 -0.08406,-0.334924 -0.03338,-0.532526 0.175792,-0.68548 0.245899,-0.179806 0.254309,-0.247761 0.0515,-0.416078 -0.289411,-0.240191 -1.265156,-0.08028 -1.541437,0.252616 -0.157366,0.189615 -0.250082,0.177484 -0.501791,-0.06565 -0.415667,-0.401518 -0.266895,-0.886014 0.292551,-0.952727 0.691191,-0.08243 0.634628,-0.34797 -0.216093,-1.014493 -0.788294,-0.617614 -0.846164,-0.87816 -0.31446,-1.415772 0.211723,-0.214077 0.338953,-0.142996 0.895926,0.500541 0.473853,0.547497 0.732907,0.71743 0.959265,0.629256 0.366921,-0.142928 0.417567,-0.614486 0.066,-0.614486 -0.294496,0 -0.683313,-0.43113 -0.528467,-0.585978 0.0607,-0.0607 0.268983,-0.02547 0.462853,0.07829 0.254406,0.136155 0.318918,0.134328 0.231841,-0.0066 -0.0703,-0.113741 0.08441,-0.273177 0.370679,-0.382016 0.38186,-0.145184 0.635238,-0.121906 1.137263,0.104475 0.633344,0.285598 0.644981,0.309018 0.596914,1.201259 -0.02696,0.500491 -0.135226,0.938717 -0.240589,0.973837 -0.105361,0.03512 -0.191566,0.327773 -0.191566,0.650338 0,0.580075 0.229732,0.801602 0.831289,0.801602 0.280005,0 0.279993,-7.08e-4 -0.03893,-1.88025 -0.138179,-0.814392 0.299667,-2.018209 0.73405,-2.018209 0.28019,0 0.334925,0.725819 0.07438,0.986363 -0.251722,0.251723 -0.265544,1.12589 -0.03104,1.962799 0.244575,0.872833 0.125461,1.274295 -0.442105,1.490083 -0.478076,0.181766 -0.571853,0.829229 -0.14389,0.993455 0.298297,0.114467 0.234781,0.855937 -0.138011,1.611091 -0.242099,0.490415 -0.391792,0.498256 -0.845747,0.0443 z m 4.798452,-6.984724 c -0.0077,-0.1868 0.03419,-0.291461 0.09307,-0.232578 0.05888,0.05888 0.06518,0.211719 0.01398,0.339638 -0.05657,0.14136 -0.09856,0.09937 -0.107058,-0.10706 z M 18.209742,38.457244 c -0.196657,-0.08476 -0.475751,-0.382815 -0.620208,-0.662345 -0.144455,-0.279531 -0.368336,-0.619621 -0.497511,-0.755759 -0.196047,-0.20661 -0.176718,-0.305665 0.116949,-0.599331 0.350106,-0.350108 0.354253,-0.350122 0.855072,-0.003 0.862906,0.598023 1.049616,0.657465 0.63616,0.202536 -0.443071,-0.487518 -0.499104,-0.681662 -0.196737,-0.681662 0.111081,0 0.307898,-0.139547 0.437369,-0.310104 0.224193,-0.295338 0.235672,-0.295338 0.241039,0 0.0036,0.198528 0.144264,0.310104 0.390928,0.310104 h 0.385295 l -0.385295,0.410126 c -0.570593,0.607369 -0.467233,0.733513 0.190615,0.232633 0.488348,-0.371826 0.623054,-0.403903 0.886011,-0.210986 0.332731,0.244106 0.425515,0.808643 0.132902,0.808643 -0.09746,0 -0.157267,0.06135 -0.132902,0.136336 0.02437,0.07498 -0.132332,0.361292 -0.348218,0.636239 -0.423868,0.539833 -1.426649,0.773143 -2.091469,0.486608 z m 23.562946,-0.0109 c -0.310781,-0.125916 -1.320902,-1.416372 -1.320902,-1.68749 0,-0.05082 0.159482,-0.0924 0.354405,-0.0924 0.196891,0 0.354404,-0.118136 0.354404,-0.265804 0,-0.314399 0.205591,-0.343737 0.480727,-0.0686 0.201428,0.201428 0.649883,0.05521 0.512491,-0.167102 -0.0944,-0.152743 0.388556,-0.833821 0.507165,-0.715215 0.04753,0.04754 0.117551,0.280937 0.155594,0.518671 0.04647,0.290389 0.167552,0.414363 0.36895,0.377758 0.334072,-0.06072 1.341917,0.337555 1.341917,0.530293 0,0.06792 -0.08104,0.173574 -0.180092,0.234791 -0.09905,0.06122 -0.141741,0.173359 -0.09487,0.249203 0.04687,0.07584 -0.198733,0.389299 -0.545796,0.696564 -0.637607,0.564494 -1.214833,0.680695 -1.933996,0.389328 z m -8.14319,-1.732345 c -0.194923,-0.0487 -0.408949,-0.175189 -0.475615,-0.281089 -0.197873,-0.314325 0.02894,-0.489699 0.386119,-0.298543 0.1826,0.09772 0.506488,0.17768 0.719751,0.17768 0.324578,0 0.351811,0.04331 0.167155,0.265804 -0.121328,0.146192 -0.270639,0.256553 -0.331801,0.245248 -0.06116,-0.01131 -0.270687,-0.0604 -0.465609,-0.1091 z M 27.5588,36.449503 c 0.03977,-0.119321 0.325514,-0.268731 0.634977,-0.332024 0.472825,-0.0967 0.562658,-0.06207 0.562658,0.216949 0,0.262791 -0.132402,0.332024 -0.634975,0.332024 -0.422113,0 -0.610733,-0.07273 -0.56266,-0.216949 z m 2.615253,-0.226057 c 0,-0.229709 0.16382,-0.274709 0.841711,-0.231212 0.462941,0.0297 0.841711,0.133751 0.841711,0.231212 0,0.09746 -0.37877,0.201507 -0.841711,0.231212 -0.677891,0.0435 -0.841711,-0.0014 -0.841711,-0.231212 z m 6.012093,-0.401025 c -0.232091,-0.162561 -0.6439,-0.27229 -0.915131,-0.243839 -0.42499,0.04458 -0.508216,-0.02362 -0.602176,-0.493414 -0.123264,-0.61632 -0.343427,-0.708427 -0.501662,-0.209872 -0.138947,0.437784 -0.803557,0.605602 -1.151464,0.29075 -0.197231,-0.178492 -0.361003,-0.197006 -0.593206,-0.06706 -0.434225,0.243006 -0.801445,0.07302 -1.006312,-0.465819 -0.20149,-0.529962 -0.533333,-0.593394 -0.533333,-0.101948 0,0.476159 -0.495649,0.722514 -1.038442,0.516144 -0.285224,-0.108442 -0.500689,-0.102302 -0.620675,0.01769 -0.353557,0.353558 -0.978339,0.201291 -1.245397,-0.303519 -0.264862,-0.500658 -0.365644,-0.420214 -0.499514,0.398705 -0.04196,0.256674 -0.203632,0.359661 -0.586282,0.373465 -0.290593,0.01047 -0.740137,0.11954 -0.998991,0.242352 -0.42453,0.201419 -0.533038,0.17351 -1.107509,-0.284861 -0.623606,-0.497579 -0.794529,-0.773963 -0.478634,-0.773963 0.08704,0 0.204143,0.119611 0.260243,0.265803 0.116842,0.304485 0.74391,0.3582 0.916756,0.07853 0.186364,-0.301543 -0.07738,-1.053141 -0.369568,-1.053141 -0.147393,0 -0.313887,0.119611 -0.369986,0.265803 -0.150554,0.392336 -0.385719,0.322953 -0.450462,-0.132902 -0.04033,-0.28397 -0.17136,-0.394656 -0.45533,-0.384635 -0.299385,0.01056 -0.398705,-0.08514 -0.398705,-0.384212 0,-0.219056 -0.0464,-0.519195 -0.103109,-0.666979 -0.07877,-0.205262 0.176637,-0.355099 1.08188,-0.634699 1.540131,-0.4757 1.78787,-0.462661 2.305003,0.1213 l 0.431539,0.487306 -0.101239,-0.543183 c -0.09528,-0.511213 -0.0582,-0.556077 0.629997,-0.762266 0.402178,-0.120496 1.12687,-0.26594 1.610425,-0.32321 l 0.879191,-0.104127 v 0.566747 c 0,0.315452 0.07514,0.520309 0.169464,0.462013 0.0932,-0.0576 0.125553,-0.241727 0.07188,-0.409164 -0.07345,-0.229161 -0.05575,-0.246031 0.07158,-0.06823 0.09304,0.129909 0.143301,0.541169 0.111699,0.913912 -0.06222,0.733922 0.260535,1.179909 0.724931,1.001703 0.354669,-0.1361 0.356618,-0.999998 0.0023,-0.999998 -0.215625,0 -0.265804,-0.287133 -0.265804,-1.520986 0,-1.138005 -0.05577,-1.502408 -0.221502,-1.447204 -0.121827,0.04058 -0.233934,0.346253 -0.249127,0.679275 -0.04526,0.992063 -0.100031,1.007452 -0.262977,0.07389 -0.168833,-0.96728 -0.190144,-2.010606 -0.04584,-2.244098 0.160261,-0.259311 1.090343,-0.162693 1.200634,0.124722 0.05759,0.150069 0.05554,0.854414 -0.0045,1.565212 l -0.109243,1.292357 0.776609,0.205528 c 0.427133,0.113039 1.135443,0.226039 1.574019,0.251112 0.877525,0.05016 0.872195,0.03614 0.606295,1.594656 -0.100957,0.591745 -0.158706,0.651622 -0.536912,0.556697 -0.363913,-0.09134 -0.423792,-0.04253 -0.423792,0.345393 0,0.610361 0.269178,0.735105 0.686253,0.318029 0.189628,-0.189628 0.491565,-0.372768 0.670973,-0.406979 0.412754,-0.07871 0.55924,-0.855993 0.161318,-0.855993 -0.313568,0 -0.378011,-0.44896 -0.09,-0.626963 0.103473,-0.06395 0.258694,-0.301861 0.344933,-0.528689 l 0.156801,-0.412415 1.095686,0.331748 c 0.602628,0.18246 1.284688,0.509304 1.515691,0.72632 0.473194,0.444544 0.555455,1.128913 0.154201,1.28289 -0.321324,0.123302 -0.348301,0.66855 -0.04794,0.968913 0.17235,0.172351 0.107567,0.309819 -0.310104,0.658036 -0.900431,0.750694 -1.055437,0.799526 -1.515367,0.477377 z m 0.01278,-0.849849 c 0,-0.04298 -0.07974,-0.07814 -0.177202,-0.07814 -0.09746,0 -0.177202,0.08445 -0.177202,0.187661 0,0.103213 0.07974,0.138377 0.177202,0.07814 0.09746,-0.06023 0.177202,-0.144682 0.177202,-0.187661 z m 1.425637,7.08e-4 c 0.190964,-0.230095 0.166942,-0.337138 -0.145843,-0.649923 -0.312785,-0.312785 -0.419828,-0.336806 -0.649923,-0.145842 -0.283061,0.234918 -0.367002,0.743427 -0.157331,0.953096 0.20967,0.209671 0.718178,0.125731 0.953097,-0.157331 z M 27.250215,34.271795 c 0,-0.2301 -0.138056,-0.371584 -0.398705,-0.408602 -0.293626,-0.0417 -0.398705,0.03224 -0.398705,0.28057 0,0.185458 0.05592,0.393113 0.124261,0.461456 0.235066,0.235066 0.673149,0.01808 0.673149,-0.333424 z m 8.487327,0.163639 c 0.144025,-0.375325 -0.01683,-0.604217 -0.424622,-0.604217 -0.398339,0 -0.60048,0.273733 -0.46427,0.628694 0.13249,0.345265 0.75357,0.328163 0.888892,-0.02448 z m -6.272298,-0.17167 c 0,-0.04298 -0.07974,-0.07814 -0.177202,-0.07814 -0.09746,0 -0.177203,0.08445 -0.177203,0.187661 0,0.103213 0.07974,0.138377 0.177203,0.07814 0.09746,-0.06023 0.177202,-0.144682 0.177202,-0.187661 z m 3.544046,0.09906 c 0,-0.09746 -0.07974,-0.177202 -0.177203,-0.177202 -0.09746,0 -0.177202,0.07974 -0.177202,0.177202 0,0.09746 0.07974,0.177202 0.177202,0.177202 0.09746,0 0.177203,-0.07974 0.177203,-0.177202 z m -4.107808,-0.398705 c -0.04482,-0.314543 -0.160779,-0.391505 -0.549359,-0.364601 -0.374363,0.02592 -0.480621,-0.03786 -0.442825,-0.265803 0.03531,-0.21299 -0.09601,-0.316593 -0.45313,-0.357479 -0.405903,-0.04647 -0.490898,0.0045 -0.440838,0.264455 0.03411,0.177113 0.280329,0.426658 0.547156,0.554545 0.266826,0.127887 0.485139,0.307912 0.485139,0.400056 0,0.09214 0.204899,0.167532 0.455331,0.167532 0.370891,0 0.444795,-0.07394 0.398526,-0.398705 z m 1.804178,-0.147335 c 0,-0.340257 -0.578149,-0.765969 -0.774112,-0.570007 -0.138331,0.138332 -0.147732,0.843944 -0.01304,0.978639 0.206272,0.206272 0.78715,-0.09528 0.78715,-0.408632 z m 1.772023,-0.06042 c 0,-0.395606 -0.387731,-0.628584 -0.735957,-0.442221 -0.412153,0.220578 -0.421195,0.6241 -0.01903,0.849164 0.335038,0.187496 0.754985,-0.03886 0.754985,-0.406943 z m -1.240416,-5.219515 c 0,-0.08553 -0.102962,-0.240954 -0.228804,-0.345394 -0.169908,-0.14101 -0.28433,-0.100982 -0.444508,0.155504 -0.192302,0.307925 -0.167479,0.345396 0.228805,0.345396 0.244479,0 0.444507,-0.06998 0.444507,-0.155506 z M 11.690695,20.883724 c 1.254831,-2.129783 5.374556,-6.432711 8.187764,-8.551871 12.047841,-9.0755096 28.541755,-9.3077696 40.931639,-0.576382 1.825837,1.286703 4.389845,3.583167 5.970365,5.347386 1.187188,1.325168 3.264107,4.014238 3.264107,4.226166 0,0.05392 -13.201649,0.09803 -29.336999,0.09803 H 11.370573 l 0.320122,-0.543333 z m 70.049227,50.967843 c 0,-0.04298 0.07974,-0.127426 0.177202,-0.187661 0.09746,-0.06023 0.177202,-0.02507 0.177202,0.07814 0,0.103213 -0.07974,0.187661 -0.177202,0.187661 -0.09746,0 -0.177202,-0.03516 -0.177202,-0.07814 z m 0.191192,-52.624773 c -0.0077,-0.186799 0.03419,-0.29146 0.09307,-0.232578 0.05888,0.05889 0.06518,0.211722 0.01398,0.339639 -0.05657,0.141359 -0.09856,0.09937 -0.107059,-0.107061 z"
     fill="#000000"
     id="path1" /></svg>
