<?xml version="1.0" encoding="UTF-8" standalone="no"?>
<svg
   version="1.1"
   viewBox="-5 -10 89.133339 90.995697"
   id="svg2"
   sodipodi:docname="noun-voyage-6947124.svg"
   width="89.133339"
   height="90.995697"
   inkscape:version="1.3.2 (091e20e, 2023-11-25)"
   xmlns:inkscape="http://www.inkscape.org/namespaces/inkscape"
   xmlns:sodipodi="http://sodipodi.sourceforge.net/DTD/sodipodi-0.dtd"
   xmlns="http://www.w3.org/2000/svg"
   xmlns:svg="http://www.w3.org/2000/svg">
  <defs
     id="defs2" />
  <sodipodi:namedview
     id="namedview2"
     pagecolor="#ffffff"
     bordercolor="#000000"
     borderopacity="0.25"
     inkscape:showpageshadow="2"
     inkscape:pageopacity="0.0"
     inkscape:pagecheckerboard="0"
     inkscape:deskcolor="#d1d1d1"
     inkscape:zoom="1.7481481"
     inkscape:cx="44.618644"
     inkscape:cy="53.199153"
     inkscape:window-width="1440"
     inkscape:window-height="449"
     inkscape:window-x="0"
     inkscape:window-y="25"
     inkscape:window-maximized="0"
     inkscape:current-layer="svg2" />
  <path
     d="m 68.871839,3.8737955 c -0.60938,-0.59375 -0.62109,-1.5703 -0.02734,-2.1836 0.59375,-0.60937 1.5703,-0.625 2.1836,-0.02734 1.3359,1.3008 2.5977,2.6953 3.7539,4.1562 0.52734,0.66797 0.41797,1.6406 -0.25,2.168 -0.28516,0.22656 -0.62109,0.33594 -0.95703,0.33594 -0.45312,0 -0.90625,-0.19922 -1.2109,-0.58594 -1.0781,-1.3555 -2.25,-2.6562 -3.4922,-3.8633 z m -8.3086,-6.2305 c 1.5039,0.85156 2.9688,1.80859998 4.3555,2.84769998 0.27734,0.20703 0.60156,0.30859 0.92578,0.30859 0.46875,0 0.93359,-0.21484 1.2344,-0.61719 0.51172,-0.68359 0.37109,-1.64839998 -0.30859,-2.16019998 -1.4922,-1.1172 -3.0664,-2.1484 -4.6875,-3.0664 -0.74219,-0.41797 -1.6836,-0.15625 -2.1016,0.58594 -0.42187,0.74219 -0.16016,1.6836 0.58203,2.1016 z m 18.906,23.8789995 c 0.48047,1.6602 0.85547,3.3672 1.1172,5.0781 0.11719,0.76562 0.77344,1.3125 1.5234,1.3125 0.07813,0 0.15625,-0.0078 0.23438,-0.01953 0.84375,-0.12891 1.4219,-0.91406 1.293,-1.7578 -0.28125,-1.8438 -0.68359,-3.6836 -1.2031,-5.4688 -0.23828,-0.82031 -1.0938,-1.2891 -1.9102,-1.0547 -0.82031,0.23437 -1.293,1.0898 -1.0547,1.9102 z m -4.1484,-9.5117 c 0.89062,1.4844 1.6953,3.0391 2.3828,4.6211 0.25391,0.57812 0.82031,0.92578 1.4141,0.92578 0.20703,0 0.41406,-0.03906 0.61719,-0.12891 0.78125,-0.33984 1.1367,-1.25 0.79688,-2.0312 -0.74219,-1.7031 -1.6055,-3.3789 -2.5664,-4.9766 -0.4375,-0.7304695 -1.3867,-0.9687495 -2.1172,-0.5273395 -0.73047,0.4374995 -0.96875,1.3866995 -0.52734,2.1171995 z m -13.156,54.828 c -1.4648,0.92188 -3.0039,1.7539 -4.5703,2.4727 -0.77344,0.35547 -1.1133,1.2734 -0.75781,2.0469 0.26172,0.56641 0.82031,0.89844 1.4023,0.89844 0.21484,0 0.43359,-0.04687 0.64453,-0.14062 1.6875,-0.77734 3.3477,-1.6719 4.9258,-2.6641 0.72266,-0.45312 0.94141,-1.4062 0.48828,-2.1289 -0.46094,-0.71875 -1.4141,-0.9375 -2.1328,-0.48438 z m 8.0078,-6.6016 c -1.1836,1.2617 -2.4609,2.4609 -3.793,3.5586 -0.65625,0.54297 -0.75,1.5156 -0.21094,2.1719 0.30469,0.37109 0.74609,0.5625 1.1914,0.5625 0.34375,0 0.69141,-0.11719 0.98047,-0.35156 1.4336,-1.1836 2.8086,-2.4727 4.082,-3.832 0.58203,-0.62109 0.55078,-1.5977 -0.07031,-2.1797 -0.62109,-0.58594 -1.5938,-0.55469 -2.1797,0.07031 z m 13.949,-28.523 c -0.01953,-0.85156 -0.72266,-1.5312 -1.5781,-1.5078 -0.85156,0.01953 -1.5273,0.72656 -1.5078,1.5781 0.0078,0.3125 0.01172,0.625 0.01172,0.9375 0,1.4219 -0.07422,2.8555 -0.22266,4.2617 -0.08984,0.84766 0.52734,1.6055 1.375,1.6953 0.05469,0.0078 0.10938,0.0078 0.16406,0.0078 0.78125,0 1.4492,-0.58984 1.5312,-1.3828 0.16016,-1.5117 0.23828,-3.0547 0.23828,-4.5859 0,-0.33203 -0.0039,-0.66797 -0.01172,-1.0039 z m -2.3164,9.2539 c -0.82812,-0.19922 -1.6602,0.3125 -1.8594,1.1406 -0.40234,1.6836 -0.91797,3.3555 -1.5352,4.9727 -0.30469,0.79687 0.09375,1.6875 0.89062,1.9922 0.17969,0.07031 0.36719,0.10156 0.55078,0.10156 0.62109,0 1.207,-0.37891 1.4414,-0.99219 0.66406,-1.7383 1.2227,-3.543 1.6562,-5.3555 0.19531,-0.82812 -0.3125,-1.6641 -1.1445,-1.8594 z m -3.4727,10.215 c -0.75,-0.40625 -1.6875,-0.125 -2.0898,0.625 -0.82031,1.5195 -1.75,3.0039 -2.7617,4.4102 -0.49609,0.69141 -0.33984,1.6562 0.35156,2.1523 0.27344,0.19531 0.58984,0.28906 0.90234,0.28906 0.48047,0 0.95312,-0.22266 1.2539,-0.64062 1.0898,-1.5117 2.0898,-3.1094 2.9727,-4.7461 0.40234,-0.74609 0.12109,-1.6836 -0.62891,-2.0898 z m -29.383,-39.098 c 4.1484,2.8906 3.5586,7.1094 3.2109,9.6211 -0.07813,0.53906 -0.17188,1.25 -0.16016,1.6406 1.2305,0.01953 2.0391,-0.17187 2.6992,-0.32812 0.76953,-0.19141 1.6484,-0.39844 2.5117,0.14062 0.87109,0.53906 1.2109,1.5898 1.4883,2.6094 0.12891,0.48047 0.30078,0.69141 0.37891,0.71875 0.28906,0.07812 1.2695,-0.26172 2.4414,-1.2695 0.85156,-0.75 1.7617,-1.0781 2.7188,-0.98047 1.7305,0.17187 3.0703,1.75 4.3008,3.3398 0.01953,0.01953 0.12109,0.05078 0.26172,0.05859 h 0.03906 c 0.85156,0 2.3906,-0.73828 3.6602,-1.9883 -2.5586,-11.441 -11.211,-20.6089995 -22.352,-23.9299995 -1.6797,3.0547 -4.0078,8.4061995 -1.1992,10.3669995 z m 23.84,26.219 c -4.1719,-1.75 -5.6797,-1.4688 -5.8594,-1.2891 -0.39062,0.69141 -0.10938,1.3594 0.60938,2.7109 0.76172,1.4297 2.1797,4.0781 -0.71094,6.1992 -1.1406,0.82812 -1.8711,2.6289 -1.7891,4.3711 0.03125,0.69922 0.21875,1.8398 1.0391,2.7891 3.4336,-4.2227 5.7734,-9.293 6.7109,-14.781 z m -51.609,-2.7891 c -0.07031,-0.53125 -0.64844,-1.2188 -1.3203,-1.3398 -1,-0.17969 -1.7891,1.0117 -2.1797,1.7383 -0.75,1.4297 -2,2.3516 -3.6094,2.6602 -1.5312,0.28906 -3.3516,-0.01953 -5.1016003,-0.80859 0.46094,2.9609 1.3281003,5.8086 2.5508003,8.4688 0.14844,-0.05078 0.30078,-0.10938 0.44922,-0.17188 3.1484,-1.2695 6.6211,-3.5117 10.379,-6.7109 -0.85547,-1.3359 -1.0391,-2.8164 -1.168,-3.8359 z m -19.1410003,10.18 c -5.7305,-4.5781 -5.1016,-18.211 1.0898,-28.141 -0.76953,-0.26953 -1.5,-0.67188 -2.17969998,-1.1992 l -0.46875,-0.37109 c -3.21090002,5.1484 -5.17190002,11.359 -5.44920002,17.27 -0.30078,6.6094 1.5508,12.02 5.07810002,14.852 1.44919998,1.1602 3.60939998,2.2305 6.60939998,2.2305 0.98828,0 2.0586,-0.12109 3.2383,-0.37891 -0.53125,-0.94141 -1.0117,-1.8984 -1.4297,-2.8789 -2.6055,0.44531 -4.7773,-0.01563 -6.4883,-1.3828 z m 48.0700003,20.918 c 0,4.1289 -4.6992,9.3789 -8.1289,13.211 -0.35937,0.39844 -0.71094,0.78906 -1.0508,1.1719 -0.32812,-0.37109 -0.67969,-0.76172 -1.0391,-1.1602 -3.4414,-3.8398 -8.1406,-9.0781 -8.1406,-13.219 0,-5.0703 4.1211,-9.1914 9.1797,-9.1914 5.0625,0 9.1797,4.1172 9.1797,9.1875 z m -5.957,0.0039 c 0,-1.793 -1.4414,-3.2344 -3.2227,-3.2344 -1.7773,0 -3.2227,1.4414 -3.2227,3.2344 0,1.7656 1.4414,3.207 3.2227,3.207 1.7813,0 3.2227,-1.4414 3.2227,-3.207 z m -8.793,-10.922 c -2.7695,-1.9805 -5.1992,-4.2188 -4.1602,-6.9883 0.62109,-1.6602 0.23828,-2.3086 -0.39844,-3.3906 -0.42969,-0.71875 -0.89844,-1.5312 -1.0508,-2.6211 0,-0.05859 -0.01172,-0.10938 -0.01953,-0.14844 -0.05078,-0.01172 -0.10937,-0.01172 -0.16016,-0.01172 -0.64844,-0.03125 -1.6289,-0.07031 -2.9805,-0.39844 -0.73828,-0.17969 -1.3711,-0.42188 -1.9219,-0.69922 h -0.01172 c -4.5586,3.9297 -8.4297,6.2812 -11.691,7.5703 3.6094,6.2188 9.2695,11.18 16.27,13.879 1.0078,-3.1328 3.2344,-5.7227 6.125,-7.1914 z m 29.461,-14.52 c -0.73047,-1.3711 -1.8398,-3.4414 -0.57812,-5.6719 1.1992,-2.1406 4.1406,-2.2617 8.9492,-0.37109 0.05859,-0.80078 0.08984,-1.6094 0.08984,-2.4219 0,-1.1992 -0.07031,-2.3906 -0.19922,-3.5586 -1.4102,0.98047 -2.9414,1.5586 -4.25,1.5586 h -0.10938 c -1.0898,-0.03125 -2.0195,-0.46875 -2.6289,-1.2617 -1.3281,-1.7305 -1.9102,-2.1211 -2.1602,-2.1484 -0.03906,0 -0.17969,0.05078 -0.37891,0.23047 -1.1094,0.96875 -3.2891,2.5195 -5.3594,1.8984 -0.82812,-0.25 -1.9414,-0.94922 -2.4688,-2.8594 -0.07031,-0.26172 -0.12109,-0.44922 -0.17188,-0.58984 -0.05078,0.01172 -0.08984,0.01953 -0.12891,0.03125 -0.75,0.17969 -1.8711,0.44922 -3.5117,0.42188 -1,-0.03125 -1.7695,-0.35156 -2.3008,-0.98047 -0.94141,-1.0898 -0.73047,-2.5898 -0.51172,-4.1719 0.39844,-2.8516 0.48828,-4.9883 -1.9219,-6.6719 -1.6016,-1.1211 -3.3086,-3.3906 -2.3594,-7.8397995 0.37109,-1.7383 1.1211,-3.6914 2.2383,-5.80860002 -1.9805,-0.39062 -4.0312,-0.58984 -6.1289,-0.58984 h -0.17188 l -2.6797,1.42190002 c 0.85156,3.8711 0.30078,6.6484 -1.6406,8.2811995 -1.7109,1.4297 -2.6289,2.7812 -2.5781,3.8008 0.03125,0.60938 0.42969,1.1797 1.1797,1.6992 1.1914,0.80859 1.9219,1.9883 2.1094,3.4102 0.25,1.8281 -0.48047,4 -1.8906,5.6602 -0.16016,0.19141 -0.17969,0.30078 -0.17969,0.30859 0.05859,0.51172 1.5312,1.5898 2.4102,2.2305 2.0117,1.4688 4.75,3.4805 3.5898,6.3281 -0.57031,1.3789 -0.33984,1.8281 -0.26172,1.9688 0.55859,1.1094 3.6719,1.9805 5.9609,2.5391 4.1719,1.0117 7.8711,4.0703 9.4219,7.7812 1.0586,2.5312 0.98047,5.0312 -0.21875,7.0391 -0.94141,1.5781 -1.3008,4.8086 -1.0312,9.0312 3.4297,-1.6406 6.4883,-3.8398 9.0703,-6.4805 -1.2383,-1.2812 -1.9805,-3.0117 -2.0703,-4.9492 -0.12891,-2.8086 1.0703,-5.5703 3.0508,-7.0117 0.64062,-0.46484 0.73047,-0.53516 -0.17969,-2.2539 z m -18.77,-0.15234 c -4.1406,-1.0117 -6.9219,-2.0586 -7.9805,-4.1289 -0.85156,-1.6602 -0.32031,-3.3984 0.14844,-4.5508 0.25,-0.62109 -1.4297,-1.8516 -2.5508,-2.6602 -1.6914,-1.2383 -3.4414,-2.5195 -3.6602,-4.3594 -0.07031,-0.64844 0.01953,-1.6289 0.89844,-2.6719 0.83984,-0.98828 1.3086,-2.3008 1.1797,-3.2617 -0.07031,-0.55078 -0.32812,-0.94922 -0.78906,-1.2695 -1.5781,-1.0781 -2.4492,-2.5 -2.5195,-4.1016 -0.10156,-2.0586 1.1406,-4.1913995 3.6797,-6.3202995 1.0391,-0.87109 1.0391,-2.7383 0.76172,-4.4102 l -20.852,10.9689995 h -0.01172 c -3.7695,5.4297 -5.7812003,11.801 -5.7812003,18.449 0,0.39844 0.01172,0.80859 0.03125,1.2812 1.6016003,1.1797 3.5391003,1.8086 4.8789003,1.5508 0.67969,-0.12891 1.1484,-0.46875 1.4609,-1.0703 1.8789,-3.5703 4.4492,-3.5195 5.4609,-3.3398 1.9414,0.35938 3.5898,2.0703 3.8281,3.9883 0.10938,0.85156 0.25,1.5508 0.48828,2.1094 0.41016,0.94922 1.1211,1.5312 2.5117,1.8789 0.01953,0.01172 0.05078,0.01172 0.07813,0.01953 1.0586,0.26172 1.7891,0.28906 2.3789,0.32031 1.4609,0.05859 2.7891,0.32031 3.1094,2.8398 0.07031,0.46875 0.32031,0.89844 0.64062,1.4414 0.75,1.2695 1.7812,3.0117 0.64062,6.0586 -0.39844,1.0586 2.9414,3.3281 4.7305,4.5508 0.07031,0.05078 0.14844,0.10156 0.21875,0.14844 0.60938,-0.10156 1.25,-0.14844 1.8906,-0.14844 4.7305,0 8.8398,2.6914 10.891,6.6211 -0.14844,-3.5508 0.12109,-7.3594 1.5117,-9.6992 0.69141,-1.1484 0.69922,-2.6719 0.03125,-4.2695 -1.1758,-2.7852 -4.1055,-5.1836 -7.3047,-5.9648 z m -28.031,-41.84799952 6.7617,-3.96879998 -17.1910003,-2.4609 -1.8086,0.53906 12.2300003,5.89059998 z M 7.5585387,14.354355 49.308539,-7.6066445 c 0.21875,-0.10938 0.35156,-0.21094 0.42187,-0.26953 -0.17187,-0.25 -0.75,-0.80078 -2.1211,-1.3281 -2.7617,-1.0508005 -7.0117,-1.2695005 -10.27,0.64062 L 5.1283087,10.276345 c -0.37891,0.21875 -0.82812,0.26953 -1.25,0.14062 l -6,-1.9296995 -1.3281,0.48828 6.3086,4.9491995 c 1.3906,1.0898 3.1406,1.25 4.6992,0.42969 z"
     id="path1" />
</svg>
