<?xml version="1.0" encoding="UTF-8" standalone="no"?>
<svg
   version="1.1"
   x="0px"
   y="0px"
   viewBox="0 0 48 48"
   xml:space="preserve"
   id="svg56"
   sodipodi:docname="plus-icon-black.svg"
   width="48"
   height="48"
   inkscape:version="1.3.2 (091e20e, 2023-11-25)"
   xmlns:inkscape="http://www.inkscape.org/namespaces/inkscape"
   xmlns:sodipodi="http://sodipodi.sourceforge.net/DTD/sodipodi-0.dtd"
   xmlns="http://www.w3.org/2000/svg"
   xmlns:svg="http://www.w3.org/2000/svg"><defs
     id="defs60" /><sodipodi:namedview
     id="namedview58"
     pagecolor="#ffffff"
     bordercolor="#000000"
     borderopacity="0.25"
     inkscape:showpageshadow="2"
     inkscape:pageopacity="0.0"
     inkscape:pagecheckerboard="0"
     inkscape:deskcolor="#d1d1d1"
     showgrid="false"
     inkscape:zoom="7.1384425"
     inkscape:cx="-17.370736"
     inkscape:cy="14.288831"
     inkscape:window-width="1440"
     inkscape:window-height="757"
     inkscape:window-x="0"
     inkscape:window-y="25"
     inkscape:window-maximized="0"
     inkscape:current-layer="svg56" /><path
     d="M 24,48 C 37.233398,48 48,37.233398 48,24 48,10.766602 37.233398,0 24,0 10.766602,0 0,10.766602 0,24 0,37.233398 10.766602,48 24,48 Z M 24,2 C 36.130859,2 46,11.869141 46,24 46,36.130859 36.130859,46 24,46 11.869141,46 2,36.130859 2,24 2,11.869141 11.869141,2 24,2 Z"
     id="path48"
     style="fill:#808080;fill-opacity:1" /><path
     d="M 11.416992,25 H 23 v 11.583008 c 0,0.552246 0.447266,1 1,1 0.552734,0 1,-0.447754 1,-1 V 25 h 11.583008 c 0.552734,0 1,-0.447754 1,-1 0,-0.552246 -0.447266,-1 -1,-1 H 25 V 11.416992 c 0,-0.552246 -0.447266,-1 -1,-1 -0.552734,0 -1,0.447754 -1,1 V 23 H 11.416992 c -0.552734,0 -1,0.447754 -1,1 0,0.552246 0.447266,1 1,1 z"
     id="path50"
     style="fill:#808080;fill-opacity:1" /></svg>
