<?xml version="1.0" encoding="UTF-8" standalone="no"?>
<!-- Uploaded to: SVG Repo, www.svgrepo.com, Generator: SVG Repo Mixer Tools -->

<svg
   fill="#000000"
   version="1.1"
   id="Capa_1"
   width="800px"
   height="800px"
   viewBox="0 0 95.333 95.333"
   xml:space="preserve"
   sodipodi:docname="facebook-icone.svg"
   inkscape:version="1.4.2 (ebf0e940, 2025-05-08)"
   xmlns:inkscape="http://www.inkscape.org/namespaces/inkscape"
   xmlns:sodipodi="http://sodipodi.sourceforge.net/DTD/sodipodi-0.dtd"
   xmlns="http://www.w3.org/2000/svg"
   xmlns:svg="http://www.w3.org/2000/svg"><defs
   id="defs1" /><sodipodi:namedview
   id="namedview1"
   pagecolor="#ffffff"
   bordercolor="#000000"
   borderopacity="0.25"
   inkscape:showpageshadow="2"
   inkscape:pageopacity="0.0"
   inkscape:pagecheckerboard="0"
   inkscape:deskcolor="#d1d1d1"
   inkscape:zoom="0.30055027"
   inkscape:cx="-658.79162"
   inkscape:cy="151.38898"
   inkscape:window-width="1440"
   inkscape:window-height="872"
   inkscape:window-x="0"
   inkscape:window-y="28"
   inkscape:window-maximized="0"
   inkscape:current-layer="Capa_1" />
<g
   id="g1">
	<path
   d="M93.333,0H2C0.896,0,0,0.896,0,2v91.332c0,1.104,0.896,2,2,2h48.525V63.477H40.284c-0.885,0-1.602-0.717-1.602-1.602   V48.961c0-0.885,0.717-1.603,1.602-1.603h10.242v-8.913c0-11.744,7.395-19.332,18.839-19.332l10.188,0.016   c0.883,0.001,1.6,0.718,1.6,1.602v11.991c0,0.885-0.717,1.602-1.602,1.602l-6.863,0.003c-4.729,0-5.595,1.844-5.595,5.475v7.556   h11.979c0.425,0,0.832,0.169,1.133,0.47c0.3,0.301,0.469,0.708,0.469,1.133L80.67,61.876c0,0.885-0.717,1.603-1.602,1.603H67.092   v31.854h26.24c1.104,0,2-0.896,2-2V2C95.333,0.895,94.438,0,93.333,0z"
   id="path1" />
</g>
</svg>
