<?xml version="1.0" encoding="UTF-8" standalone="no"?>
<svg
   version="1.1"
   viewBox="-5 -10 87.5 87.5"
   id="svg2"
   sodipodi:docname="instagram-icone.svg"
   width="87.5"
   height="87.5"
   inkscape:version="1.4.2 (ebf0e940, 2025-05-08)"
   xmlns:inkscape="http://www.inkscape.org/namespaces/inkscape"
   xmlns:sodipodi="http://sodipodi.sourceforge.net/DTD/sodipodi-0.dtd"
   xmlns="http://www.w3.org/2000/svg"
   xmlns:svg="http://www.w3.org/2000/svg">
  <defs
     id="defs2" />
  <sodipodi:namedview
     id="namedview2"
     pagecolor="#ffffff"
     bordercolor="#000000"
     borderopacity="0.25"
     inkscape:showpageshadow="2"
     inkscape:pageopacity="0.0"
     inkscape:pagecheckerboard="0"
     inkscape:deskcolor="#d1d1d1"
     inkscape:zoom="2.6713703"
     inkscape:cx="85.349454"
     inkscape:cy="72.809074"
     inkscape:window-width="1440"
     inkscape:window-height="900"
     inkscape:window-x="0"
     inkscape:window-y="0"
     inkscape:window-maximized="0"
     inkscape:current-layer="svg2" />
  <path
     d="m 63.75,-10 h -50 C 3.41,-10 -5,-1.5898 -5,8.75 v 50 C -5,69.09 3.4102,77.5 13.75,77.5 h 50 c 10.34,0 18.75,-8.4102 18.75,-18.75 v -50 C 82.5,-1.59 74.0898,-10 63.75,-10 Z m 12.5,68.75 c 0,6.8945 -5.6055,12.5 -12.5,12.5 h -50 c -6.8945,0 -12.5,-5.6055 -12.5,-12.5 v -50 c 0,-6.8945 5.6055,-12.5 12.5,-12.5 h 50 c 6.8945,0 12.5,5.6055 12.5,12.5 z m -37.5,-50 c -13.785,0 -25,11.215 -25,25 0,13.785 11.215,25 25,25 13.785,0 25,-11.215 25,-25 0,-13.785 -11.215,-25 -25,-25 z m 0,43.75 C 28.41,52.5 20,44.0898 20,33.75 20,23.4102 28.4102,15 38.75,15 49.0898,15 57.5,23.4102 57.5,33.75 57.5,44.0898 49.0898,52.5 38.75,52.5 Z M 65.969,6.531 c 0.5625,0.59375 0.90625,1.4062 0.90625,2.2188 0,0.8126 -0.34375,1.625 -0.90625,2.2188 -0.59375,0.5625 -1.4062,0.90625 -2.2188,0.90625 -0.8126,0 -1.625,-0.34375 -2.2188,-0.90625 -0.5625,-0.59375 -0.90625,-1.4062 -0.90625,-2.2188 0,-0.8126 0.34375,-1.625 0.90625,-2.2188 1.1562,-1.125 3.25,-1.1562 4.4375,0 z"
     id="path1" />
</svg>
